<svg id="Capa_1" enable-background="new 0 0 497 497" height="512" viewBox="0 0 497 497" width="512" xmlns="http://www.w3.org/2000/svg"><g><path d="m248.5 0 45 353.5-220.72-280.72c44.98-44.96 107.1-72.78 175.72-72.78z" fill="#ae7df0"/><path d="m18.92 343.61c-12.16-29.3-18.92-61.41-18.92-95.11 0-68.62 27.82-130.74 72.78-175.72l269.03 269.03z" fill="#3857bc"/><path d="m248.5 248.5v175.72h-175.72c-22.88-22.89-41.28-50.24-53.86-80.61z" fill="#61ce5b"/><path d="m497 248.5-248.5 90 2.82-338.48c135.94 1.51 245.68 112.18 245.68 248.48z" fill="#f63"/><path d="m467 248.5-218.5 90v-338.5c.94 0 1.88.01 2.82.02 119.37 1.72 215.68 112.31 215.68 248.48z" fill="#ff8b47"/><path d="m467 248.5h30c0 136.3-109.74 246.97-245.68 248.48z" fill="#f9b348"/><path d="m248.5 248.5h218.5c0 136.17-96.31 246.76-215.68 248.48-.94.01-1.88.02-2.82.02-68.62 0-130.74-27.82-175.72-72.78z" fill="#f3da49"/></g></svg>